<svg width="25" height="25" viewBox="0 0 25 25" fill="none" xmlns="http://www.w3.org/2000/svg">
<path d="M12.5 0C5.6075 0 0 5.6075 0 12.5C0 19.3925 5.6075 25 12.5 25C19.3925 25 25 19.3925 25 12.5C25 5.6075 19.3925 0 12.5 0ZM12.5 5.125C12.8214 5.125 13.1356 5.2203 13.4028 5.39886C13.67 5.57742 13.8783 5.83121 14.0013 6.12814C14.1243 6.42507 14.1565 6.7518 14.0938 7.06702C14.0311 7.38224 13.8763 7.67179 13.649 7.89905C13.4218 8.12631 13.1322 8.28107 12.817 8.34378C12.5018 8.40648 12.1751 8.3743 11.8781 8.2513C11.5812 8.12831 11.3274 7.92003 11.1489 7.6528C10.9703 7.38557 10.875 7.07139 10.875 6.75C10.875 6.31902 11.0462 5.9057 11.351 5.60095C11.6557 5.2962 12.069 5.125 12.5 5.125V5.125ZM15.5 19.25H10C9.73478 19.25 9.48043 19.1446 9.29289 18.9571C9.10536 18.7696 9 18.5152 9 18.25C9 17.9848 9.10536 17.7304 9.29289 17.5429C9.48043 17.3554 9.73478 17.25 10 17.25H11.75V11.75H10.75C10.4848 11.75 10.2304 11.6446 10.0429 11.4571C9.85536 11.2696 9.75 11.0152 9.75 10.75C9.75 10.4848 9.85536 10.2304 10.0429 10.0429C10.2304 9.85536 10.4848 9.75 10.75 9.75H12.75C13.0152 9.75 13.2696 9.85536 13.4571 10.0429C13.6446 10.2304 13.75 10.4848 13.75 10.75V17.25H15.5C15.7652 17.25 16.0196 17.3554 16.2071 17.5429C16.3946 17.7304 16.5 17.9848 16.5 18.25C16.5 18.5152 16.3946 18.7696 16.2071 18.9571C16.0196 19.1446 15.7652 19.25 15.5 19.25Z" fill="white"/>
</svg>
